<svg viewBox="0 0 1000 620" xmlns="http://www.w3.org/2000/svg" role="img" aria-label="Пять различных направлений лазерных выстрелов из точки O">
<defs>
<pattern id="grid" x="60" y="30" width="60" height="60" patternUnits="userSpaceOnUse">
<path d="M 60 0 L 0 0 0 60" fill="none" stroke="#d7dee8" stroke-width="1"/>
</pattern>
<marker id="axisArrow" markerWidth="8" markerHeight="8" refX="7" refY="4" orient="auto" markerUnits="strokeWidth">
<path d="M0,0 L8,4 L0,8 Z" fill="#64748b"/>
</marker>
<marker id="redArrow" markerWidth="9" markerHeight="9" refX="8" refY="4.5" orient="auto" markerUnits="strokeWidth">
<path d="M0,0 L9,4.5 L0,9 Z" fill="#dc2626"/>
</marker>
<marker id="orangeArrow" markerWidth="9" markerHeight="9" refX="8" refY="4.5" orient="auto" markerUnits="strokeWidth">
<path d="M0,0 L9,4.5 L0,9 Z" fill="#ea580c"/>
</marker>
<marker id="blueArrow" markerWidth="9" markerHeight="9" refX="8" refY="4.5" orient="auto" markerUnits="strokeWidth">
<path d="M0,0 L9,4.5 L0,9 Z" fill="#2563eb"/>
</marker>
<marker id="greenArrow" markerWidth="9" markerHeight="9" refX="8" refY="4.5" orient="auto" markerUnits="strokeWidth">
<path d="M0,0 L9,4.5 L0,9 Z" fill="#16a34a"/>
</marker>
<marker id="purpleArrow" markerWidth="9" markerHeight="9" refX="8" refY="4.5" orient="auto" markerUnits="strokeWidth">
<path d="M0,0 L9,4.5 L0,9 Z" fill="#9333ea"/>
</marker>
</defs>
<rect width="1000" height="620" fill="white"/>
<rect x="60" y="30" width="600" height="540" fill="url(#grid)" stroke="#bcc8d8" stroke-width="1.5"/>
<line x1="75" y1="330" x2="645" y2="330" stroke="#64748b" stroke-width="2" marker-end="url(#axisArrow)"/>
<line x1="360" y1="555" x2="360" y2="45" stroke="#64748b" stroke-width="2" marker-end="url(#axisArrow)"/>
<text x="639" y="315" font-family="Arial, sans-serif" font-size="23" fill="#334155">x</text>
<text x="375" y="54" font-family="Arial, sans-serif" font-size="23" fill="#334155">y</text>
<line x1="360" y1="330" x2="615" y2="330" stroke="#dc2626" stroke-width="6" stroke-linecap="round" marker-end="url(#redArrow)"/>
<line x1="360" y1="330" x2="105" y2="330" stroke="#ea580c" stroke-width="6" stroke-linecap="round" marker-end="url(#orangeArrow)"/>
<line x1="360" y1="330" x2="555" y2="135" stroke="#2563eb" stroke-width="6" stroke-linecap="round" marker-end="url(#blueArrow)"/>
<line x1="360" y1="330" x2="472.5" y2="555" stroke="#16a34a" stroke-width="6" stroke-linecap="round" marker-end="url(#greenArrow)"/>
<line x1="360" y1="330" x2="105" y2="202.5" stroke="#9333ea" stroke-width="6" stroke-linecap="round" marker-end="url(#purpleArrow)"/>
<circle cx="360" cy="330" r="10" fill="#111827"/>
<circle cx="420" cy="330" r="9" fill="#111827"/>
<circle cx="540" cy="330" r="9" fill="#111827"/>
<circle cx="240" cy="330" r="9" fill="#111827"/>
<circle cx="420" cy="270" r="9" fill="#111827"/>
<circle cx="480" cy="210" r="9" fill="#111827"/>
<circle cx="420" cy="450" r="9" fill="#111827"/>
<circle cx="240" cy="270" r="9" fill="#111827"/>
<g font-family="Arial, sans-serif" font-size="22" fill="#111827">
<text x="336" y="365" font-weight="bold">O</text>
<text x="410" y="363">A</text>
<text x="530" y="363">B</text>
<text x="230" y="363">C</text>
<text x="433" y="276">D</text>
<text x="493" y="216">E</text>
<text x="433" y="457">F</text>
<text x="214" y="263">G</text>
</g>
<rect x="690" y="55" width="270" height="480" rx="14" fill="#f8fafc" stroke="#c7d2e0" stroke-width="1.5"/>
<text x="720" y="93" font-family="Arial, sans-serif" font-size="23" font-weight="bold" fill="#111827">Направления</text>
<line x1="720" y1="130" x2="765" y2="130" stroke="#dc2626" stroke-width="6"/>
<text x="785" y="138" font-family="Arial, sans-serif" font-size="21" fill="#111827">(1, 0)</text>
<text x="720" y="168" font-family="Arial, sans-serif" font-size="17" fill="#475569">точки A и B</text>
<line x1="720" y1="205" x2="765" y2="205" stroke="#ea580c" stroke-width="6"/>
<text x="785" y="213" font-family="Arial, sans-serif" font-size="21" fill="#111827">(-1, 0)</text>
<text x="720" y="243" font-family="Arial, sans-serif" font-size="17" fill="#475569">точка C</text>
<line x1="720" y1="280" x2="765" y2="280" stroke="#2563eb" stroke-width="6"/>
<text x="785" y="288" font-family="Arial, sans-serif" font-size="21" fill="#111827">(1, 1)</text>
<text x="720" y="318" font-family="Arial, sans-serif" font-size="17" fill="#475569">точки D и E</text>
<line x1="720" y1="355" x2="765" y2="355" stroke="#16a34a" stroke-width="6"/>
<text x="785" y="363" font-family="Arial, sans-serif" font-size="21" fill="#111827">(1, -2)</text>
<text x="720" y="393" font-family="Arial, sans-serif" font-size="17" fill="#475569">точка F</text>
<line x1="720" y1="430" x2="765" y2="430" stroke="#9333ea" stroke-width="6"/>
<text x="785" y="438" font-family="Arial, sans-serif" font-size="21" fill="#111827">(-2, 1)</text>
<text x="720" y="468" font-family="Arial, sans-serif" font-size="17" fill="#475569">точка G</text>
<text x="282" y="605" font-family="Arial, sans-serif" font-size="24" font-weight="bold" fill="#111827">5 направлений — 5 выстрелов</text>
</svg>